<mxfile host="app.diagrams.net" modified="2022-12-30T07:32:21.301Z" agent="5.0 (Windows NT 10.0; Win64; x64) AppleWebKit/537.36 (KHTML, like Gecko) Chrome/108.0.0.0 Safari/537.36 Edg/108.0.1462.54" etag="78r4rJHf7ZLOciezCHPM" version="20.7.4" type="github">
  <diagram name="Page-1" id="c7558073-3199-34d8-9f00-42111426c3f3">
    <mxGraphModel dx="875" dy="509" grid="1" gridSize="10" guides="1" tooltips="1" connect="1" arrows="1" fold="1" page="1" pageScale="1" pageWidth="826" pageHeight="1169" background="none" math="0" shadow="0">
      <root>
        <mxCell id="0" />
        <mxCell id="1" parent="0" />
        <mxCell id="pVGklI6mgiraMRyQ4hw1-98" value="" style="triangle;whiteSpace=wrap;html=1;rotation=90;" parent="1" vertex="1">
          <mxGeometry x="330" y="125" width="20" height="40" as="geometry" />
        </mxCell>
        <mxCell id="WY5-UuZOdsSpcmxcLBCM-5" value="" style="ellipse;whiteSpace=wrap;html=1;aspect=fixed;" vertex="1" parent="1">
          <mxGeometry x="440" y="180" width="20" height="20" as="geometry" />
        </mxCell>
        <mxCell id="WY5-UuZOdsSpcmxcLBCM-6" value="" style="endArrow=none;html=1;rounded=0;entryX=1;entryY=0.5;entryDx=0;entryDy=0;" edge="1" parent="1" source="WY5-UuZOdsSpcmxcLBCM-5" target="pVGklI6mgiraMRyQ4hw1-98">
          <mxGeometry width="50" height="50" relative="1" as="geometry">
            <mxPoint x="390" y="340" as="sourcePoint" />
            <mxPoint x="440" y="290" as="targetPoint" />
            <Array as="points">
              <mxPoint x="340" y="190" />
            </Array>
          </mxGeometry>
        </mxCell>
        <mxCell id="WY5-UuZOdsSpcmxcLBCM-8" value="" style="endArrow=classic;html=1;rounded=0;exitX=0;exitY=1;exitDx=0;exitDy=0;entryX=1;entryY=0;entryDx=0;entryDy=0;" edge="1" parent="1" source="WY5-UuZOdsSpcmxcLBCM-5" target="WY5-UuZOdsSpcmxcLBCM-5">
          <mxGeometry width="50" height="50" relative="1" as="geometry">
            <mxPoint x="380" y="280" as="sourcePoint" />
            <mxPoint x="390" y="270" as="targetPoint" />
          </mxGeometry>
        </mxCell>
        <mxCell id="WY5-UuZOdsSpcmxcLBCM-9" value="" style="triangle;whiteSpace=wrap;html=1;rotation=90;" vertex="1" parent="1">
          <mxGeometry x="330" y="200" width="20" height="40" as="geometry" />
        </mxCell>
        <mxCell id="WY5-UuZOdsSpcmxcLBCM-10" value="" style="ellipse;whiteSpace=wrap;html=1;aspect=fixed;" vertex="1" parent="1">
          <mxGeometry x="440" y="255" width="20" height="20" as="geometry" />
        </mxCell>
        <mxCell id="WY5-UuZOdsSpcmxcLBCM-11" value="" style="endArrow=none;html=1;rounded=0;entryX=1;entryY=0.5;entryDx=0;entryDy=0;" edge="1" parent="1" source="WY5-UuZOdsSpcmxcLBCM-10" target="WY5-UuZOdsSpcmxcLBCM-9">
          <mxGeometry width="50" height="50" relative="1" as="geometry">
            <mxPoint x="390" y="415" as="sourcePoint" />
            <mxPoint x="440" y="365" as="targetPoint" />
            <Array as="points">
              <mxPoint x="340" y="265" />
            </Array>
          </mxGeometry>
        </mxCell>
        <mxCell id="WY5-UuZOdsSpcmxcLBCM-12" value="" style="endArrow=classic;html=1;rounded=0;exitX=0;exitY=1;exitDx=0;exitDy=0;entryX=1;entryY=0;entryDx=0;entryDy=0;" edge="1" parent="1" source="WY5-UuZOdsSpcmxcLBCM-10" target="WY5-UuZOdsSpcmxcLBCM-10">
          <mxGeometry width="50" height="50" relative="1" as="geometry">
            <mxPoint x="380" y="355" as="sourcePoint" />
            <mxPoint x="390" y="345" as="targetPoint" />
          </mxGeometry>
        </mxCell>
        <mxCell id="WY5-UuZOdsSpcmxcLBCM-13" value="" style="triangle;whiteSpace=wrap;html=1;rotation=90;" vertex="1" parent="1">
          <mxGeometry x="330" y="320" width="20" height="40" as="geometry" />
        </mxCell>
        <mxCell id="WY5-UuZOdsSpcmxcLBCM-14" value="" style="ellipse;whiteSpace=wrap;html=1;aspect=fixed;" vertex="1" parent="1">
          <mxGeometry x="440" y="375" width="20" height="20" as="geometry" />
        </mxCell>
        <mxCell id="WY5-UuZOdsSpcmxcLBCM-15" value="" style="endArrow=none;html=1;rounded=0;entryX=1;entryY=0.5;entryDx=0;entryDy=0;" edge="1" parent="1" source="WY5-UuZOdsSpcmxcLBCM-14" target="WY5-UuZOdsSpcmxcLBCM-13">
          <mxGeometry width="50" height="50" relative="1" as="geometry">
            <mxPoint x="390" y="535" as="sourcePoint" />
            <mxPoint x="440" y="485" as="targetPoint" />
            <Array as="points">
              <mxPoint x="340" y="385" />
            </Array>
          </mxGeometry>
        </mxCell>
        <mxCell id="WY5-UuZOdsSpcmxcLBCM-16" value="" style="endArrow=classic;html=1;rounded=0;exitX=0;exitY=1;exitDx=0;exitDy=0;entryX=1;entryY=0;entryDx=0;entryDy=0;" edge="1" parent="1" source="WY5-UuZOdsSpcmxcLBCM-14" target="WY5-UuZOdsSpcmxcLBCM-14">
          <mxGeometry width="50" height="50" relative="1" as="geometry">
            <mxPoint x="380" y="475" as="sourcePoint" />
            <mxPoint x="390" y="465" as="targetPoint" />
          </mxGeometry>
        </mxCell>
      </root>
    </mxGraphModel>
  </diagram>
</mxfile>
